<svg width="24" height="24" viewBox="0 0 24 24" fill="none" xmlns="http://www.w3.org/2000/svg">
<path d="M16.6523 12C16.7753 12 16.8372 11.9999 16.8867 12.0225C16.9303 12.0424 16.9673 12.0748 16.9932 12.1152C17.0225 12.1611 17.0316 12.2219 17.0488 12.3438L17.1172 12.8281C17.1304 12.9212 17.1375 12.968 17.1553 13.0039C17.1725 13.0387 17.1907 13.0612 17.2207 13.0859C17.2517 13.1113 17.3025 13.1314 17.4043 13.1709C17.4383 13.1841 17.4726 13.1983 17.5059 13.2129C17.606 13.2569 17.6566 13.2784 17.6963 13.2822C17.7348 13.2859 17.7631 13.2829 17.7998 13.2705C17.8377 13.2577 17.876 13.2301 17.9512 13.1738L18.3438 12.8799C18.4419 12.8065 18.491 12.7695 18.5439 12.7578C18.5907 12.7476 18.6397 12.7509 18.6846 12.7676C18.7355 12.7866 18.7793 12.8301 18.8662 12.917L19.083 13.1338C19.1698 13.2206 19.2134 13.2645 19.2324 13.3154C19.249 13.3603 19.2524 13.4093 19.2422 13.4561C19.2305 13.5091 19.1929 13.5581 19.1191 13.6562L18.8262 14.0469C18.7696 14.1222 18.7414 14.1605 18.7285 14.1982C18.7161 14.235 18.7131 14.2631 18.7168 14.3018C18.7206 14.3415 18.7421 14.3921 18.7861 14.4932C18.8006 14.5263 18.8141 14.5599 18.8271 14.5938C18.8663 14.6955 18.8867 14.7463 18.9121 14.7773C18.9367 14.8074 18.9593 14.8255 18.9941 14.8428C19.0301 14.8606 19.0769 14.8675 19.1699 14.8809L19.6562 14.9512C19.778 14.9686 19.839 14.9774 19.8848 15.0068C19.9251 15.0327 19.9576 15.0697 19.9775 15.1133C20 15.1627 20 15.2241 20 15.3467V15.6533C20 15.7759 20 15.8373 19.9775 15.8867C19.9576 15.9303 19.9251 15.9673 19.8848 15.9932C19.8389 16.0226 19.7781 16.0315 19.6562 16.0488L19.1709 16.1182C19.0778 16.1314 19.031 16.1376 18.9951 16.1553C18.9602 16.1725 18.9378 16.1907 18.9131 16.2207C18.8877 16.2516 18.8679 16.3031 18.8281 16.4053C18.8149 16.4392 18.8008 16.4727 18.7861 16.5059C18.7419 16.606 18.7198 16.6564 18.7158 16.6963C18.712 16.735 18.7151 16.764 18.7275 16.8008C18.7404 16.8388 18.7686 16.8769 18.8252 16.9521L19.1191 17.3438C19.1929 17.442 19.2305 17.4909 19.2422 17.5439C19.2524 17.5907 19.249 17.6397 19.2324 17.6846C19.2134 17.7355 19.1698 17.7794 19.083 17.8662L18.8662 18.083C18.7793 18.1699 18.7355 18.2134 18.6846 18.2324C18.6397 18.2491 18.5907 18.2524 18.5439 18.2422C18.491 18.2305 18.4418 18.1936 18.3438 18.1201L17.9512 17.8262C17.8759 17.7698 17.8377 17.7413 17.7998 17.7285C17.763 17.7161 17.734 17.713 17.6953 17.7168C17.6556 17.7208 17.6055 17.7423 17.5059 17.7861C17.4728 17.8007 17.439 17.815 17.4053 17.8281C17.3031 17.8678 17.2516 17.8877 17.2207 17.9131C17.1909 17.9377 17.1734 17.9605 17.1562 17.9951C17.1385 18.031 17.1314 18.0778 17.1182 18.1709L17.0488 18.6562C17.0315 18.7781 17.0226 18.8389 16.9932 18.8848C16.9673 18.9251 16.9303 18.9576 16.8867 18.9775C16.8373 19 16.7759 19 16.6533 19H16.3467C16.2241 19 16.1627 19 16.1133 18.9775C16.0697 18.9576 16.0327 18.9251 16.0068 18.8848C15.9774 18.839 15.9686 18.778 15.9512 18.6562L15.8809 18.1699C15.8675 18.0769 15.8606 18.0301 15.8428 17.9941C15.8255 17.9593 15.8074 17.9367 15.7773 17.9121C15.7463 17.8867 15.6955 17.8663 15.5938 17.8271C15.5599 17.8141 15.5263 17.8006 15.4932 17.7861C15.3921 17.7421 15.3415 17.7206 15.3018 17.7168C15.2631 17.7131 15.235 17.7161 15.1982 17.7285C15.1605 17.7414 15.1222 17.7696 15.0469 17.8262L14.6562 18.1191C14.558 18.1929 14.5091 18.2305 14.4561 18.2422C14.4093 18.2524 14.3603 18.249 14.3154 18.2324C14.2645 18.2134 14.2206 18.1698 14.1338 18.083L13.917 17.8662C13.8301 17.7793 13.7866 17.7355 13.7676 17.6846C13.7509 17.6397 13.7476 17.5907 13.7578 17.5439C13.7695 17.491 13.8065 17.4419 13.8799 17.3438L14.1738 16.9512C14.2301 16.876 14.2577 16.8377 14.2705 16.7998C14.2829 16.7631 14.2859 16.7348 14.2822 16.6963C14.2784 16.6566 14.2569 16.606 14.2129 16.5059C14.1983 16.4726 14.1841 16.4383 14.1709 16.4043C14.1314 16.3025 14.1113 16.2517 14.0859 16.2207C14.0612 16.1907 14.0387 16.1725 14.0039 16.1553C13.968 16.1375 13.9212 16.1304 13.8281 16.1172L13.3438 16.0488C13.2219 16.0316 13.1611 16.0225 13.1152 15.9932C13.0748 15.9673 13.0424 15.9303 13.0225 15.8867C12.9999 15.8372 13 15.7753 13 15.6523V15.3467C13 15.2241 13.0001 15.1627 13.0225 15.1133C13.0424 15.0697 13.0749 15.0327 13.1152 15.0068C13.1609 14.9775 13.2214 14.9686 13.3428 14.9512L13.8291 14.8809C13.9221 14.8675 13.969 14.8606 14.0049 14.8428C14.0397 14.8255 14.0623 14.8074 14.0869 14.7773C14.1123 14.7463 14.1326 14.6955 14.1719 14.5938C14.1848 14.5602 14.1985 14.527 14.2129 14.4941C14.2569 14.3934 14.2794 14.3425 14.2832 14.3027C14.2869 14.2641 14.2829 14.2359 14.2705 14.1992C14.2577 14.1614 14.2292 14.1231 14.1729 14.0479L13.8799 13.6562C13.8064 13.5581 13.7695 13.509 13.7578 13.4561C13.7476 13.4093 13.7509 13.3603 13.7676 13.3154C13.7866 13.2645 13.8301 13.2207 13.917 13.1338L14.1338 12.917C14.2207 12.8301 14.2645 12.7866 14.3154 12.7676C14.3603 12.7509 14.4093 12.7476 14.4561 12.7578C14.509 12.7695 14.5581 12.8064 14.6562 12.8799L15.0479 13.1729C15.1231 13.2292 15.1614 13.2577 15.1992 13.2705C15.2359 13.2829 15.2641 13.2869 15.3027 13.2832C15.3425 13.2794 15.3934 13.2569 15.4941 13.2129C15.527 13.1985 15.5602 13.1848 15.5938 13.1719C15.6955 13.1326 15.7463 13.1123 15.7773 13.0869C15.8074 13.0623 15.8255 13.0397 15.8428 13.0049C15.8606 12.969 15.8675 12.9221 15.8809 12.8291L15.9512 12.3428C15.9686 12.2214 15.9775 12.1609 16.0068 12.1152C16.0327 12.0749 16.0697 12.0424 16.1133 12.0225C16.1627 12.0001 16.2241 12 16.3467 12H16.6523ZM15.3125 6.00488C16.2877 6.02021 16.881 6.0819 17.3623 6.32715C17.9265 6.61472 18.3853 7.07347 18.6729 7.6377C18.9998 8.27941 19 9.11978 19 10.7998V11H18V10.7998C18 9.94341 17.9997 9.36117 17.9629 8.91113C17.9271 8.47272 17.8619 8.2482 17.7822 8.0918C17.5905 7.71554 17.2845 7.40951 16.9082 7.21777C16.7518 7.13808 16.5273 7.07293 16.0889 7.03711C15.6388 7.00035 15.0566 7 14.2002 7H8.7998C7.94341 7 7.36117 7.00035 6.91113 7.03711C6.47272 7.07293 6.2482 7.13808 6.0918 7.21777C5.71554 7.40951 5.40951 7.71554 5.21777 8.0918C5.13808 8.2482 5.07293 8.47272 5.03711 8.91113C5.00035 9.36117 5 9.94341 5 10.7998V13.2002C5 14.0566 5.00035 14.6388 5.03711 15.0889C5.07293 15.5273 5.13808 15.7518 5.21777 15.9082C5.40951 16.2845 5.71554 16.5905 6.0918 16.7822C6.2482 16.8619 6.47272 16.9271 6.91113 16.9629C7.36117 16.9997 7.94341 17 8.7998 17H12V18H8.7998C7.11978 18 6.27941 17.9998 5.6377 17.6729C5.14381 17.4211 4.73057 17.0383 4.44238 16.5684L4.32715 16.3623C4.0819 15.881 4.02021 15.2877 4.00488 14.3125L4 13.2002V10.7998C4 9.22468 4.00007 8.38795 4.26953 7.76074L4.32715 7.6377C4.57888 7.14381 4.96166 6.73057 5.43164 6.44238L5.6377 6.32715C6.27941 6.00018 7.11978 6 8.7998 6H14.2002L15.3125 6.00488ZM16.5 14C15.6716 14 15 14.6716 15 15.5C15 16.3284 15.6716 17 16.5 17C17.3284 17 18 16.3284 18 15.5C18 14.6716 17.3284 14 16.5 14Z" fill="#F7F8F8"/>
</svg>
