<svg width="24" height="24" viewBox="0 0 24 24" fill="none" xmlns="http://www.w3.org/2000/svg">
<path d="M8 11C8.28571 11.0059 8.52229 11.1027 8.70971 11.2903C8.89714 11.4779 8.9939 11.7145 9 12C8.9941 12.2857 8.89733 12.5223 8.70971 12.7097C8.5221 12.8971 8.28553 12.9939 8 13C7.71429 12.9941 7.47771 12.8973 7.29029 12.7097C7.10286 12.5221 7.0061 12.2855 7 12C7.0059 11.7143 7.10267 11.4777 7.29029 11.2903C7.4779 11.1029 7.71447 11.0061 8 11ZM12 11C12.2857 11.0059 12.5223 11.1027 12.7097 11.2903C12.8971 11.4779 12.9939 11.7145 13 12C12.9941 12.2857 12.8973 12.5223 12.7097 12.7097C12.5221 12.8971 12.2855 12.9939 12 13C11.7143 12.9941 11.4777 12.8973 11.2903 12.7097C11.1029 12.5221 11.0061 12.2855 11 12C11.0059 11.7143 11.1027 11.4777 11.2903 11.2903C11.4779 11.1029 11.7145 11.0061 12 11ZM16 11C16.2857 11.0059 16.5223 11.1027 16.7097 11.2903C16.8971 11.4779 16.9939 11.7145 17 12C16.9941 12.2857 16.8973 12.5223 16.7097 12.7097C16.5221 12.8971 16.2855 12.9939 16 13C15.7143 12.9941 15.4777 12.8973 15.2903 12.7097C15.1029 12.5221 15.0061 12.2855 15 12C15.0059 11.7143 15.1027 11.4777 15.2903 11.2903C15.4779 11.1029 15.7145 11.0061 16 11Z" fill="#F7F8F8"/>
</svg>
