<svg width="15" height="16" viewBox="0 0 15 16" fill="none" xmlns="http://www.w3.org/2000/svg">
<mask id="path-1-inside-1_752_207" fill="white">
<path d="M0 6.2C0 5.07989 0 4.51984 0.217987 4.09202C0.409734 3.71569 0.715695 3.40973 1.09202 3.21799C1.51984 3 2.0799 3 3.2 3H6V13H3.2C2.07989 13 1.51984 13 1.09202 12.782C0.715695 12.5903 0.409734 12.2843 0.217987 11.908C0 11.4802 0 10.9201 0 9.8V6.2Z"/>
</mask>
<path d="M-1 5C-1 3.34315 0.343146 2 2 2H6V4H2C1.44772 4 1 4.44772 1 5H-1ZM6 14H2C0.343146 14 -1 12.6569 -1 11H1C1 11.5523 1.44772 12 2 12H6V14ZM2 14C0.343146 14 -1 12.6569 -1 11V5C-1 3.34315 0.343146 2 2 2V4C1.44772 4 1 4.44772 1 5V11C1 11.5523 1.44772 12 2 12V14ZM6 3V13V3Z" fill="#2C2F32" mask="url(#path-1-inside-1_752_207)"/>
<mask id="path-3-inside-2_752_207" fill="white">
<path d="M15 6.2C15 5.07989 15 4.51984 14.782 4.09202C14.5903 3.71569 14.2843 3.40973 13.908 3.21799C13.4802 3 12.9201 3 11.8 3H9V13H11.8C12.9201 13 13.4802 13 13.908 12.782C14.2843 12.5903 14.5903 12.2843 14.782 11.908C15 11.4802 15 10.9201 15 9.8V6.2Z"/>
</mask>
<path d="M16 5C16 3.34315 14.6569 2 13 2H9V4H13C13.5523 4 14 4.44772 14 5H16ZM9 14H13C14.6569 14 16 12.6569 16 11H14C14 11.5523 13.5523 12 13 12H9V14ZM13 14C14.6569 14 16 12.6569 16 11V5C16 3.34315 14.6569 2 13 2V4C13.5523 4 14 4.44772 14 5V11C14 11.5523 13.5523 12 13 12V14ZM9 3V13V3Z" fill="#2C2F32" mask="url(#path-3-inside-2_752_207)"/>
<rect x="7" y="1" width="1" height="14" rx="0.5" fill="#2C2F32"/>
</svg>
